<?xml version="1.0" encoding="UTF-8" standalone="no"?>
<!DOCTYPE svg PUBLIC "-//W3C//DTD SVG 1.1//EN" "http://www.w3.org/Graphics/SVG/1.1/DTD/svg11.dtd">
<svg width="100%" height="100%" viewBox="0 0 200 200" version="1.1" xmlns="http://www.w3.org/2000/svg" xmlns:xlink="http://www.w3.org/1999/xlink" xml:space="preserve" xmlns:serif="http://www.serif.com/" style="fill-rule:evenodd;clip-rule:evenodd;stroke-linejoin:round;stroke-miterlimit:2;">
    <g transform="matrix(1,0,0,1,-211.848,-149.98)">
        <g transform="matrix(355.556,0,0,355.556,211.848,349.98)">
            <path d="M0.125,-0.25L0.125,-0.188L0.188,-0.188L0.188,-0.125L0.25,-0.125L0.25,-0.188L0.313,-0.188L0.313,-0.125L0.375,-0.125L0.375,-0.188L0.438,-0.188L0.438,-0.25L0.375,-0.25L0.375,-0.313L0.438,-0.313L0.438,-0.375L0.375,-0.375L0.375,-0.438L0.313,-0.438L0.313,-0.375L0.25,-0.375L0.25,-0.438L0.188,-0.438L0.188,-0.375L0.125,-0.375L0.125,-0.313L0.188,-0.313L0.188,-0.25L0.125,-0.25ZM0.313,-0.313L0.313,-0.25L0.25,-0.25L0.25,-0.313L0.313,-0.313ZM0.5,-0.563C0.542,-0.563 0.563,-0.542 0.563,-0.5L0.563,-0.063C0.563,-0.021 0.542,-0 0.5,-0L0.063,-0C0.021,-0 0,-0.021 0,-0.063L0,-0.5C0,-0.542 0.021,-0.563 0.063,-0.563L0.5,-0.563Z" style="fill:rgb(250,50,102);fill-rule:nonzero;"/>
        </g>
    </g>
</svg>
